<?xml version="1.0" ?><!DOCTYPE svg  PUBLIC '-//W3C//DTD SVG 1.1//EN'  'http://www.w3.org/Graphics/SVG/1.1/DTD/svg11.dtd'><svg enable-background="new 0 0 512 512" height="512px" id="Layer_1" version="1.1" viewBox="0 0 512 512" width="512px" xml:space="preserve" xmlns="http://www.w3.org/2000/svg" xmlns:xlink="http://www.w3.org/1999/xlink"><g id="YT"><g><path d="M300.16,284.544c-5.776,0-11.156,3.196-16.228,9.508V255.63H268.22v117.628h15.712v-8.502    c5.246,6.566,10.642,9.706,16.228,9.706c6.262,0,10.462-3.328,12.562-9.852c1.044-3.716,1.58-9.552,1.58-17.658v-34.904    c0-8.292-0.536-14.086-1.58-17.612C310.622,287.874,306.422,284.544,300.16,284.544z M298.596,348.208    c0,7.918-2.302,11.82-6.838,11.82c-2.582,0-5.202-1.25-7.826-3.902V302.7c2.626-2.61,5.246-3.86,7.826-3.86    c4.534,0,6.838,4.058,6.838,11.962V348.208z"/><path d="M257,0C115.614,0,1,114.614,1,256s114.614,256,256,256s256-114.614,256-256S398.386,0,257,0z M257,484.002    c-125.92,0-228-102.08-228-228.002S131.08,28,257,28s228,102.08,228,228S382.92,484.002,257,484.002z"/><path d="M259.316,197.498c5.12,0,7.58-4.102,7.58-12.294v-37.26c0-8.192-2.46-12.282-7.58-12.282    c-5.112,0-7.568,4.09-7.568,12.282v37.26C251.748,193.396,254.204,197.498,259.316,197.498z"/><polygon points="152.378,272.196 170.858,272.196 170.858,373.262 188.332,373.262 188.332,272.196 207.15,272.196     207.15,255.634 152.378,255.634   "/><path d="M238.9,352.596c-3.482,4.976-6.782,7.43-9.932,7.43c-2.1,0-3.298-1.25-3.676-3.714c-0.148-0.508-0.148-2.454-0.148-6.17    v-64.524h-15.702v69.3c0,6.192,0.52,10.37,1.384,13.024c1.57,4.444,5.058,6.522,10.122,6.522c5.776,0,11.71-3.526,17.95-10.768    v9.562h15.724v-87.642h-15.724L238.9,352.596L238.9,352.596z"/><path d="M257,40C137.708,40,41,136.706,41,256s96.706,216,216,216s216-96.706,216-216C473,136.708,376.294,40,257,40z     M295.84,122.282h15.828v65.21c0,3.76,0,5.716,0.192,6.248c0.35,2.476,1.598,3.758,3.73,3.758c3.172,0,6.502-2.488,10.02-7.518    v-67.698h15.878v88.572H325.61v-9.664c-6.324,7.332-12.346,10.882-18.136,10.882c-5.108,0-8.642-2.102-10.222-6.578    c-0.876-2.686-1.41-6.92-1.41-13.168v-70.044L295.84,122.282L295.84,122.282z M235.87,151.162c0-9.464,1.598-16.384,4.972-20.862    c4.392-6.058,10.566-9.076,18.474-9.076c7.958,0,14.144,3.018,18.53,9.076c3.332,4.478,4.928,11.398,4.928,20.862v31.014    c0,9.42-1.596,16.396-4.928,20.83c-4.386,6.038-10.572,9.066-18.53,9.066c-7.908,0-14.082-3.028-18.474-9.066    c-3.374-4.432-4.972-11.41-4.972-20.83V151.162z M193.412,92l12.498,46.68L217.926,92h17.802l-21.182,70.718v48.138h-17.61    v-48.138c-1.598-8.526-5.114-21.02-10.764-37.604c-3.714-11.024-7.574-22.092-11.284-33.114H193.412z M388.416,378.524    c-3.172,13.976-14.488,24.28-28.094,25.816c-32.24,3.638-64.87,3.66-97.352,3.638c-32.488,0.022-65.118,0-97.352-3.638    c-13.614-1.536-24.912-11.842-28.09-25.816C133,358.624,133,336.898,133,316.41c0-20.498,0.05-42.214,4.584-62.126    c3.172-13.964,14.478-24.268,28.09-25.804c32.236-3.648,64.866-3.66,97.352-3.648c32.482-0.012,65.112,0,97.352,3.648    c13.606,1.536,24.918,11.842,28.094,25.804c4.528,19.912,4.506,41.628,4.506,62.126    C392.978,336.896,392.952,358.622,388.416,378.524z"/><path d="M350.204,284.544c-8.018,0-14.28,2.986-18.814,8.988c-3.342,4.434-4.856,11.278-4.856,20.642v30.704    c0,9.31,1.712,16.23,5.048,20.61c4.538,5.982,10.79,8.978,19.016,8.978c8.204,0,14.646-3.14,19-9.498    c1.904-2.82,3.14-6.004,3.67-9.52c0.142-1.592,0.334-5.12,0.334-10.226V342.9h-16.036c0,6.368-0.198,9.896-0.338,10.758    c-0.898,4.244-3.156,6.368-7.022,6.368c-5.392,0-8.018-4.046-8.018-12.162V332.33H373.6v-18.156    c0-9.364-1.576-16.208-4.862-20.642C364.342,287.53,358.084,284.544,350.204,284.544z M357.894,319.108h-15.708v-8.104    c0-8.104,2.626-12.162,7.876-12.162c5.202,0,7.832,4.058,7.832,12.162L357.894,319.108L357.894,319.108z"/></g></g></svg>